<svg xmlns="http://www.w3.org/2000/svg" xmlns:xlink="http://www.w3.org/1999/xlink" width="360" height="61" viewBox="0 0 360 61">
  <defs>
    <filter id="Rectangle_462" x="0" y="0" width="360" height="61" filterUnits="userSpaceOnUse">
      <feOffset dy="1" input="SourceAlpha"/>
      <feGaussianBlur stdDeviation="3.5" result="blur"/>
      <feFlood flood-opacity="0.09"/>
      <feComposite operator="in" in2="blur"/>
      <feComposite in="SourceGraphic"/>
    </filter>
  </defs>
  <g id="Group_639" data-name="Group 639" transform="translate(-690.5 -675.5)">
    <g transform="matrix(1, 0, 0, 1, 690.5, 675.5)" filter="url(#Rectangle_462)">
      <rect id="Rectangle_462-2" data-name="Rectangle 462" width="339" height="40" rx="8" transform="translate(10.5 9.5)" fill="#fff"/>
    </g>
    <text id="Team_call" data-name="Team call" transform="translate(797.553 710)" fill="#707070" font-size="12" font-family="Roboto-Regular, Roboto" letter-spacing="0.02em"><tspan x="0" y="0">Team call</tspan></text>
    <path id="Path_3140" data-name="Path 3140" d="M-2571.357,1583.55h-10.956a3.008,3.008,0,0,0-3.011,3.011v10.956a3.008,3.008,0,0,0,3.011,3.011h10.956a3.008,3.008,0,0,0,3.011-3.011v-10.956A3.049,3.049,0,0,0-2571.357,1583.55Zm-7.272,13.166-.032-.032-.1.1-3.876-3.908,1.826-1.794,2.082,2.082,5.862-5.862,1.826,1.826Z" transform="translate(3333.463 -886.55)" fill="#23d6a0"/>
    <text id="Normal" transform="translate(970 710)" fill="#66676c" font-size="12" font-family="Roboto-Regular, Roboto" letter-spacing="0.02em"><tspan x="0" y="0">Normal</tspan></text>
    <g id="Group_637" data-name="Group 637" transform="translate(0 1.5)" opacity="0.5">
      <path id="Path_3141" data-name="Path 3141" d="M11792.871,2383.5h9.594" transform="translate(-11076 -1686)" fill="none" stroke="#707070" stroke-linecap="round" stroke-width="1"/>
      <path id="Path_3142" data-name="Path 3142" d="M11792.871,2383.5h9.594" transform="translate(-11076 -1682)" fill="none" stroke="#707070" stroke-linecap="round" stroke-width="1"/>
      <path id="Path_3143" data-name="Path 3143" d="M11792.871,2383.5h9.594" transform="translate(-11076 -1678)" fill="none" stroke="#707070" stroke-linecap="round" stroke-width="1"/>
      <path id="Path_3144" data-name="Path 3144" d="M11792.871,2383.5h9.594" transform="translate(-11076 -1674)" fill="none" stroke="#707070" stroke-linecap="round" stroke-width="1"/>
    </g>
    <path id="Path_3145" data-name="Path 3145" d="M1017.269,705h10.366" fill="none" stroke="#707070" stroke-linecap="round" stroke-width="2"/>
  </g>
</svg>
