<svg xmlns="http://www.w3.org/2000/svg" width="49" height="49" viewBox="0 0 49 49">
  <g id="Group_609" data-name="Group 609" transform="translate(-1136 -14)">
    <circle id="Ellipse_232" data-name="Ellipse 232" cx="24.5" cy="24.5" r="24.5" transform="translate(1136 14)" fill="#fff"/>
    <g id="Layer_2" data-name="Layer 2" transform="translate(1144 27)">
      <path id="Path_2832" data-name="Path 2832" d="M15.378,6.755a2.378,2.378,0,1,1,2.378-2.378A2.378,2.378,0,0,1,15.378,6.755Zm0-3.17a.793.793,0,1,0,.793.793A.793.793,0,0,0,15.378,3.585Z" transform="translate(-2.075)" fill="#000d58"/>
      <path id="Path_2833" data-name="Path 2833" d="M14.989,28.962a3.963,3.963,0,0,1-3.836-2.972A.793.793,0,0,1,11.946,25H18.08a.793.793,0,0,1,.793.991A3.963,3.963,0,0,1,14.989,28.962Zm-1.775-2.378a2.378,2.378,0,0,0,3.55,0Z" transform="translate(-1.686 -4.772)" fill="#000d58"/>
      <path id="Path_2834" data-name="Path 2834" d="M22.813,22.643H3.793A.793.793,0,0,1,3,21.85V20.424a2.378,2.378,0,0,1,2.2-2.378V12.34A6.34,6.34,0,0,1,11.535,6H15.07a6.34,6.34,0,0,1,6.34,6.34v5.714a2.378,2.378,0,0,1,2.2,2.378V21.85A.793.793,0,0,1,22.813,22.643ZM4.585,21.058H22.02v-.634a.793.793,0,0,0-.793-.793h-.61a.793.793,0,0,1-.793-.793v-6.5A4.755,4.755,0,0,0,15.07,7.585H11.535A4.755,4.755,0,0,0,6.78,12.34v6.5a.793.793,0,0,1-.793.793h-.61a.793.793,0,0,0-.793.793Z" transform="translate(0 -0.83)" fill="#000d58"/>
    </g>
    <rect id="Rectangle_374" data-name="Rectangle 374" width="18" height="18" rx="4" transform="translate(1160 21)" fill="#e50c35"/>
    <text id="_4" data-name="4" transform="translate(1165 35)" fill="#fff" font-size="14" font-family="Roboto-Medium, Roboto" font-weight="500" letter-spacing="0.025em"><tspan x="0" y="0">4</tspan></text>
  </g>
</svg>
