<svg xmlns="http://www.w3.org/2000/svg" xmlns:xlink="http://www.w3.org/1999/xlink" width="360" height="61" viewBox="0 0 360 61">
  <defs>
    <filter id="Rectangle_462" x="0" y="0" width="360" height="61" filterUnits="userSpaceOnUse">
      <feOffset dy="1" input="SourceAlpha"/>
      <feGaussianBlur stdDeviation="3.5" result="blur"/>
      <feFlood flood-opacity="0.09"/>
      <feComposite operator="in" in2="blur"/>
      <feComposite in="SourceGraphic"/>
    </filter>
  </defs>
  <g id="Group_642" data-name="Group 642" transform="translate(-690.5 -675.5)">
    <g transform="matrix(1, 0, 0, 1, 690.5, 675.5)" filter="url(#Rectangle_462)">
      <rect id="Rectangle_462-2" data-name="Rectangle 462" width="339" height="40" rx="8" transform="translate(10.5 9.5)" fill="#fff"/>
    </g>
    <text id="Task_allotment" data-name="Task allotment" transform="translate(797.553 710)" fill="#707070" font-size="12" font-family="Roboto-Regular, Roboto" letter-spacing="0.02em"><tspan x="0" y="0">Task allotment</tspan></text>
    <text id="Low" transform="translate(983 710)" fill="#23d6a0" font-size="12" font-family="Roboto-Regular, Roboto" letter-spacing="0.02em"><tspan x="0" y="0">Low</tspan></text>
    <path id="arrow-up" d="M12.738,10.88,10.5,13.113a2.042,2.042,0,0,1-2.821,0L5.45,10.88A.855.855,0,1,1,6.659,9.671l1.584,1.584L8.256.855A.855.855,0,0,1,9.111,0h0a.855.855,0,0,1,.855.855L9.953,11.247l1.576-1.576a.855.855,0,1,1,1.209,1.209Z" transform="translate(1010.801 698)" fill="#23d6a0"/>
    <g id="Group_637" data-name="Group 637" transform="translate(0 1.5)" opacity="0.5">
      <path id="Path_3141" data-name="Path 3141" d="M11792.871,2383.5h9.594" transform="translate(-11076 -1686)" fill="none" stroke="#707070" stroke-linecap="round" stroke-width="1"/>
      <path id="Path_3142" data-name="Path 3142" d="M11792.871,2383.5h9.594" transform="translate(-11076 -1682)" fill="none" stroke="#707070" stroke-linecap="round" stroke-width="1"/>
      <path id="Path_3143" data-name="Path 3143" d="M11792.871,2383.5h9.594" transform="translate(-11076 -1678)" fill="none" stroke="#707070" stroke-linecap="round" stroke-width="1"/>
      <path id="Path_3144" data-name="Path 3144" d="M11792.871,2383.5h9.594" transform="translate(-11076 -1674)" fill="none" stroke="#707070" stroke-linecap="round" stroke-width="1"/>
    </g>
    <path id="Path_3148" data-name="Path 3148" d="M-2571.357,1583.55h-10.956a3.008,3.008,0,0,0-3.011,3.011v10.956a3.008,3.008,0,0,0,3.011,3.011h10.956a3.008,3.008,0,0,0,3.011-3.011v-10.956A3.049,3.049,0,0,0-2571.357,1583.55Zm-7.272,13.166-.032-.032Z" transform="translate(3333.463 -886.55)" fill="#dedede"/>
  </g>
</svg>
