<svg xmlns="http://www.w3.org/2000/svg" width="170" height="242" viewBox="0 0 170 242">
  <g id="Group_652" data-name="Group 652" transform="translate(-20 -474)">
    <g id="Mobile_login-pana" data-name="Mobile login-pana" transform="translate(-7.68 439.95)">
      <g id="freepik--background-complete--inject-31" transform="translate(39.68 34.05)">
        <path id="Path_3151" data-name="Path 3151" d="M357.822,253.085H303V221.36h54.822Zm-54.488-.334h54.153V221.695H303.334Z" transform="translate(-214.917 -158.703)" fill="#e0e0e0"/>
        <rect id="Rectangle_464" data-name="Rectangle 464" width="36.17" height="1.06" transform="translate(95.425 79.573)" fill="#f0f0f0"/>
        <rect id="Rectangle_465" data-name="Rectangle 465" width="38.662" height="1.157" transform="translate(95.425 83.527)" fill="#f0f0f0"/>
        <rect id="Rectangle_466" data-name="Rectangle 466" width="38.662" height="1.157" transform="translate(95.425 87.527)" fill="#f0f0f0"/>
        <rect id="Rectangle_467" data-name="Rectangle 467" width="12.641" height="2.753" transform="translate(95.425 73.829)" fill="#f0f0f0"/>
        <rect id="Rectangle_468" data-name="Rectangle 468" width="54.478" height="5.051" transform="translate(88.26 62.824)" fill="#e0e0e0"/>
        <path id="Path_3152" data-name="Path 3152" d="M453.85,227.645a8.734,8.734,0,0,1,1.565-1.89,8.984,8.984,0,0,1,1.82-1.652A9.007,9.007,0,0,1,455.67,226,8.663,8.663,0,0,1,453.85,227.645Z" transform="translate(-315.304 -160.526)" fill="#fff"/>
        <path id="Path_3153" data-name="Path 3153" d="M457.256,227.644a8.758,8.758,0,0,1-1.82-1.649,8.67,8.67,0,0,1-1.565-1.893,8.627,8.627,0,0,1,1.82,1.652A9.041,9.041,0,0,1,457.256,227.644Z" transform="translate(-315.317 -160.525)" fill="#fff"/>
        <rect id="Rectangle_469" data-name="Rectangle 469" width="54.478" height="31.394" transform="translate(20.967)" fill="#e6e6e6"/>
        <rect id="Rectangle_470" data-name="Rectangle 470" width="36.17" height="1.06" transform="translate(28.135 16.752)" fill="#f0f0f0"/>
        <rect id="Rectangle_471" data-name="Rectangle 471" width="38.662" height="1.157" transform="translate(28.135 20.706)" fill="#f0f0f0"/>
        <rect id="Rectangle_472" data-name="Rectangle 472" width="38.662" height="1.157" transform="translate(28.135 24.707)" fill="#f0f0f0"/>
        <rect id="Rectangle_473" data-name="Rectangle 473" width="12.641" height="2.753" transform="translate(28.135 11.009)" fill="#f0f0f0"/>
        <rect id="Rectangle_474" data-name="Rectangle 474" width="54.478" height="5.051" transform="translate(20.967)" fill="#e0e0e0"/>
        <path id="Path_3154" data-name="Path 3154" d="M252.13,39.771a8.823,8.823,0,0,1,1.565-1.89,8.78,8.78,0,0,1,1.82-1.649,8.854,8.854,0,0,1-1.566,1.89A9.022,9.022,0,0,1,252.13,39.771Z" transform="translate(-181.061 -35.499)" fill="#fff"/>
        <path id="Path_3155" data-name="Path 3155" d="M255.516,39.771a8.757,8.757,0,0,1-1.82-1.649,8.7,8.7,0,0,1-1.566-1.89,8.664,8.664,0,0,1,1.82,1.649A8.789,8.789,0,0,1,255.516,39.771Z" transform="translate(-181.061 -35.499)" fill="#fff"/>
        <path id="Path_3156" data-name="Path 3156" d="M94.492,145.268H39.68V113.54H94.492Zm-54.478-.335H94.158V113.875H40.015Z" transform="translate(-39.68 -86.95)" fill="#e0e0e0"/>
        <rect id="Rectangle_475" data-name="Rectangle 475" width="36.17" height="1.06" transform="translate(7.336 43.509)" fill="#f0f0f0"/>
        <rect id="Rectangle_476" data-name="Rectangle 476" width="38.662" height="1.157" transform="translate(7.336 47.463)" fill="#f0f0f0"/>
        <rect id="Rectangle_477" data-name="Rectangle 477" width="38.662" height="1.157" transform="translate(7.336 51.464)" fill="#f0f0f0"/>
        <rect id="Rectangle_478" data-name="Rectangle 478" width="12.641" height="2.753" transform="translate(7.336 37.766)" fill="#f0f0f0"/>
        <rect id="Rectangle_479" data-name="Rectangle 479" width="54.478" height="5.051" transform="translate(0.167 26.757)" fill="#e0e0e0"/>
        <rect id="Rectangle_480" data-name="Rectangle 480" width="64.326" height="57.589" transform="translate(53.745 65.587)" fill="#e6e6e6"/>
        <rect id="Rectangle_481" data-name="Rectangle 481" width="50.39" height="52.354" transform="translate(6.59 47.447)" fill="#f0f0f0"/>
        <rect id="Rectangle_482" data-name="Rectangle 482" width="50.39" height="5.703" transform="translate(6.59 47.447)" fill="#e0e0e0"/>
        <path id="Path_3157" data-name="Path 3157" d="M67.616,182.044a1.057,1.057,0,1,1-1.057-1.1A1.084,1.084,0,0,1,67.616,182.044Z" transform="translate(-56.865 -131.804)" fill="#fff"/>
        <path id="Path_3158" data-name="Path 3158" d="M80.433,182.044a1.06,1.06,0,1,1-1.057-1.1A1.084,1.084,0,0,1,80.433,182.044Z" transform="translate(-65.39 -131.804)" fill="#fff"/>
        <path id="Path_3159" data-name="Path 3159" d="M93.263,182.044a1.06,1.06,0,1,1-1.057-1.1A1.084,1.084,0,0,1,93.263,182.044Z" transform="translate(-73.928 -131.804)" fill="#fff"/>
        <rect id="Rectangle_483" data-name="Rectangle 483" width="64.326" height="73.234" transform="translate(48.384 11.45)" fill="#f0f0f0"/>
        <rect id="Rectangle_484" data-name="Rectangle 484" width="64.326" height="7.51" transform="translate(48.384 11.45)" fill="#e0e0e0"/>
        <path id="Path_3160" data-name="Path 3160" d="M263.912,76.385a1.395,1.395,0,1,1-1.395-1.455,1.428,1.428,0,0,1,1.395,1.455Z" transform="translate(-210.049 -61.255)" fill="#fff"/>
        <path id="Path_3161" data-name="Path 3161" d="M280.313,75.467a1.395,1.395,0,1,1-2.007-.047,1.422,1.422,0,0,1,2.007.047Z" transform="translate(-221.209 -61.321)" fill="#fff"/>
        <path id="Path_3162" data-name="Path 3162" d="M297.692,76.385A1.395,1.395,0,1,1,296.3,74.93a1.428,1.428,0,0,1,1.395,1.455Z" transform="translate(-232.53 -61.255)" fill="#fff"/>
      </g>
      <g id="freepik--Floor--inject-31" transform="translate(57.74 174.148)">
        <path id="Path_3163" data-name="Path 3163" d="M197.424,452.957c0,.047-23.228.087-51.872.087S93.67,453,93.67,452.957s23.225-.087,51.882-.087S197.424,452.913,197.424,452.957Z" transform="translate(-93.67 -452.87)" fill="#263238"/>
      </g>
      <g id="freepik--Plant--inject-31" transform="translate(132.705 97.648)">
        <g id="Group_649" data-name="Group 649" transform="translate(-18 28)">
          <path id="Path_3164" data-name="Path 3164" d="M323.932,259.811c-5.168-3.609-6.339-10.31-6.135-16.334a6.529,6.529,0,0,1,.4-2.947,2.054,2.054,0,0,1,2.5-1.064c.746.351,1.07,1.221,1.489,1.94a5.874,5.874,0,0,0,2.358,2.251,2.235,2.235,0,0,0,2.064.187c.87-.478.97-1.673.963-2.676q0-2.8-.033-5.593a9.309,9.309,0,0,1,.3-2.97,3.113,3.113,0,0,1,1.95-2.1,1.9,1.9,0,0,1,2.342,1.261,9.639,9.639,0,0,1,.03,1.244,1.081,1.081,0,0,0,.612,1c.391.127.8-.164,1.1-.458a13.217,13.217,0,0,0,2.385-3.6,18.392,18.392,0,0,1,2.228-3.72,5.421,5.421,0,0,1,3.68-2.057,3.223,3.223,0,0,1,3.318,2.211c.361,1.4-.458,2.84-1.338,3.981A22.369,22.369,0,0,1,339.5,234.8a1.819,1.819,0,0,0-.779.833c-.217.669.415,1.338,1.074,1.549a11.787,11.787,0,0,0,2.342.264,2.249,2.249,0,0,1,1.92,1.171c.408,1.024-.448,2.094-1.288,2.8a19.2,19.2,0,0,1-5.66,3.268,6.471,6.471,0,0,0-2.1,1.02,1.848,1.848,0,0,0-.592,2.121,1.882,1.882,0,0,0,2.051.786,13.334,13.334,0,0,0,2.194-.836c1.375-.518,3.148-.425,4.014.763a3.165,3.165,0,0,1,.335,2.8,7.3,7.3,0,0,1-1.515,2.472,19.277,19.277,0,0,1-8.249,5.764,13.2,13.2,0,0,1-9.309.244" transform="translate(-317.774 -224.174)" fill="#c53f3f"/>
          <g id="Group_648" data-name="Group 648">
            <path id="Path_3165" data-name="Path 3165" d="M355.792,226.66s-.03.033-.1.094l-.3.264c-.261.234-.646.575-1.131,1.027a37.335,37.335,0,0,0-3.82,4.124c-.746.927-1.519,1.977-2.342,3.118s-1.673,2.372-2.516,3.68a45.372,45.372,0,0,0-2.465,4.275c-.388.766-.729,1.565-1.081,2.382l-1.037,2.492a91.946,91.946,0,0,0-3.566,9.624,44.826,44.826,0,0,0-1.673,8.205,32.627,32.627,0,0,0-.094,5.65c.053.669.1,1.181.151,1.529.02.167.033.3.047.4v.137a.7.7,0,0,1-.03-.134c-.017-.1-.037-.227-.064-.395-.06-.335-.124-.863-.184-1.532a31.084,31.084,0,0,1,.033-5.667,44.088,44.088,0,0,1,1.636-8.242,89.783,89.783,0,0,1,3.556-9.647l1.064-2.482c.351-.813.7-1.619,1.087-2.388a44.788,44.788,0,0,1,2.485-4.285c.856-1.338,1.719-2.549,2.532-3.68s1.6-2.188,2.342-3.111A35.557,35.557,0,0,1,354.2,228c.5-.445.89-.779,1.157-1l.311-.251A.731.731,0,0,1,355.792,226.66Z" transform="translate(-329.559 -225.828)" fill="#263238"/>
            <path id="Path_3166" data-name="Path 3166" d="M355.1,254.112a2.069,2.069,0,0,1-.1-.425c-.054-.278-.114-.669-.184-1.177-.144-1-.291-2.378-.448-3.9s-.335-2.9-.482-3.894c-.077-.5-.144-.893-.191-1.171a1.806,1.806,0,0,1-.057-.435,1.852,1.852,0,0,1,.124.418c.074.274.157.669.251,1.167.191,1,.378,2.368.535,3.894s.291,2.863.395,3.9c.05.468.094.866.127,1.184a1.856,1.856,0,0,1,.027.435Z" transform="translate(-341.643 -236.776)" fill="#263238"/>
            <path id="Path_3167" data-name="Path 3167" d="M370.965,268.775a2.676,2.676,0,0,1-.5.06c-.335.03-.81.07-1.4.137-1.177.127-2.8.361-4.573.7s-3.372.712-4.519,1c-.572.147-1.034.281-1.338.371a2.438,2.438,0,0,1-.5.12,2.911,2.911,0,0,1,.482-.191c.314-.11.769-.264,1.338-.428,1.141-.335,2.736-.733,4.519-1.074a45.54,45.54,0,0,1,4.566-.636c.592-.05,1.07-.07,1.4-.077A2.571,2.571,0,0,1,370.965,268.775Z" transform="translate(-344.638 -253.84)" fill="#263238"/>
            <path id="Path_3168" data-name="Path 3168" d="M328.423,286.044a.694.694,0,0,1-.087-.157l-.221-.465c-.191-.4-.448-1-.756-1.736-.622-1.472-1.415-3.532-2.258-5.82s-1.619-4.349-2.208-5.837c-.288-.723-.525-1.315-.7-1.756l-.187-.478a.646.646,0,0,1-.054-.174.7.7,0,0,1,.087.157l.221.465c.187.4.448,1,.756,1.736.622,1.472,1.415,3.532,2.258,5.82s1.619,4.349,2.208,5.837c.288.723.525,1.315.7,1.756.077.191.141.335.191.478A.647.647,0,0,1,328.423,286.044Z" transform="translate(-320.553 -254.418)" fill="#263238"/>
            <path id="Path_3169" data-name="Path 3169" d="M358.38,302.25a.71.71,0,0,1-.171.07l-.5.167-1.83.592c-1.545.5-3.68,1.218-6.021,2.007s-4.486,1.492-6.041,1.96c-.776.238-1.408.418-1.846.539l-.505.13a.869.869,0,0,1-.181.037.707.707,0,0,1,.171-.07l.5-.167,1.83-.592c1.545-.5,3.68-1.218,6.021-2.007s4.482-1.492,6.038-1.96c.779-.237,1.408-.418,1.85-.539l.505-.13A.867.867,0,0,1,358.38,302.25Z" transform="translate(-333.424 -276.133)" fill="#263238"/>
          </g>
        </g>
        <g id="Group_650" data-name="Group 650" transform="translate(-33.967 60.835) rotate(-30)">
          <path id="Path_3164-2" data-name="Path 3164" d="M328.942,242.567c2.667-1.863,3.272-5.321,3.166-8.43a3.37,3.37,0,0,0-.207-1.521,1.06,1.06,0,0,0-1.288-.549c-.385.181-.552.63-.768,1a3.032,3.032,0,0,1-1.217,1.162,1.153,1.153,0,0,1-1.065.1c-.449-.247-.5-.863-.5-1.381q0-1.445.017-2.887a4.8,4.8,0,0,0-.155-1.533,1.607,1.607,0,0,0-1.007-1.083.983.983,0,0,0-1.209.651,4.974,4.974,0,0,0-.016.642.558.558,0,0,1-.316.518c-.2.066-.413-.085-.568-.237a6.821,6.821,0,0,1-1.231-1.859,9.5,9.5,0,0,0-1.15-1.92,2.8,2.8,0,0,0-1.9-1.062,1.663,1.663,0,0,0-1.713,1.141,2.527,2.527,0,0,0,.691,2.055,11.544,11.544,0,0,0,2.4,2.288.939.939,0,0,1,.4.43c.112.345-.214.691-.554.8a6.085,6.085,0,0,1-1.209.136,1.161,1.161,0,0,0-.991.6c-.211.528.231,1.081.665,1.443a9.907,9.907,0,0,0,2.921,1.687,3.34,3.34,0,0,1,1.086.527.954.954,0,0,1,.306,1.095.972.972,0,0,1-1.058.406,6.879,6.879,0,0,1-1.133-.432,1.792,1.792,0,0,0-2.072.394,1.633,1.633,0,0,0-.173,1.445,3.769,3.769,0,0,0,.782,1.276,9.949,9.949,0,0,0,4.257,2.975,6.811,6.811,0,0,0,4.8.126" transform="translate(-317.775 -224.174)" fill="#c53f3f"/>
          <g id="Group_648-2" data-name="Group 648" transform="translate(0.757 0.429)">
            <path id="Path_3165-2" data-name="Path 3165" d="M335.482,226.66s.016.017.05.048l.154.136c.135.121.333.3.584.53a19.265,19.265,0,0,1,1.972,2.129c.385.478.784,1.02,1.209,1.609s.863,1.224,1.3,1.9a23.411,23.411,0,0,1,1.272,2.206c.2.4.376.808.558,1.229l.535,1.286a47.45,47.45,0,0,1,1.84,4.967,23.137,23.137,0,0,1,.863,4.235,16.838,16.838,0,0,1,.048,2.916c-.028.345-.053.609-.078.789-.01.086-.017.155-.024.205v.071a.361.361,0,0,0,.016-.069c.009-.05.019-.117.033-.2.031-.173.064-.445.095-.791a16.045,16.045,0,0,0-.017-2.925,22.755,22.755,0,0,0-.844-4.254,46.332,46.332,0,0,0-1.835-4.979l-.549-1.281c-.181-.42-.359-.836-.561-1.233a23.114,23.114,0,0,0-1.283-2.212c-.442-.691-.887-1.316-1.307-1.9s-.825-1.129-1.209-1.606a18.346,18.346,0,0,0-2-2.113c-.256-.23-.459-.4-.6-.518l-.161-.13A.378.378,0,0,0,335.482,226.66Z" transform="translate(-335.433 -226.66)" fill="#263238"/>
            <path id="Path_3166-2" data-name="Path 3166" d="M353.641,248.788a1.069,1.069,0,0,0,.05-.219c.028-.143.059-.345.095-.608.074-.518.15-1.228.231-2.013s.173-1.5.249-2.01c.04-.256.074-.461.1-.6a.933.933,0,0,0,.029-.224.956.956,0,0,0-.064.216c-.038.142-.081.345-.129.6-.1.518-.2,1.222-.276,2.01s-.15,1.478-.2,2.015c-.026.242-.048.447-.066.611A.957.957,0,0,0,353.641,248.788Z" transform="translate(-346.998 -240.27)" fill="#263238"/>
            <path id="Path_3167-2" data-name="Path 3167" d="M358.14,268.764a1.382,1.382,0,0,0,.255.031c.173.016.418.036.722.071.608.066,1.443.186,2.36.359s1.74.368,2.332.518c.3.076.533.145.691.192a1.261,1.261,0,0,0,.259.062,1.5,1.5,0,0,0-.249-.1c-.162-.057-.4-.136-.691-.221-.589-.173-1.412-.378-2.332-.554a23.508,23.508,0,0,0-2.357-.328c-.306-.026-.552-.036-.725-.04A1.326,1.326,0,0,0,358.14,268.764Z" transform="translate(-358.14 -261.485)" fill="#263238"/>
            <path id="Path_3168-2" data-name="Path 3168" d="M321.95,278.1a.359.359,0,0,0,.045-.081l.114-.24c.1-.209.231-.518.39-.9.321-.76.73-1.823,1.165-3s.836-2.244,1.139-3.013c.148-.373.271-.679.363-.906l.1-.247a.333.333,0,0,0,.028-.09.359.359,0,0,0-.045.081l-.114.24c-.1.209-.231.518-.39.9-.321.76-.73,1.823-1.165,3s-.836,2.244-1.139,3.013c-.148.373-.271.678-.361.906-.04.1-.073.173-.1.247A.334.334,0,0,0,321.95,278.1Z" transform="translate(-312.424 -262.203)" fill="#263238"/>
            <path id="Path_3169-2" data-name="Path 3169" d="M341.29,302.25a.369.369,0,0,0,.088.036l.256.086.944.306c.8.259,1.9.628,3.108,1.036s2.315.77,3.118,1.012c.4.123.727.216.953.278l.261.067a.452.452,0,0,0,.093.019.362.362,0,0,0-.088-.036l-.256-.086-.944-.306c-.8-.259-1.9-.628-3.108-1.036s-2.313-.77-3.116-1.012c-.4-.123-.727-.216-.955-.278l-.261-.067A.447.447,0,0,0,341.29,302.25Z" transform="translate(-340.582 -289.2)" fill="#263238"/>
          </g>
        </g>
      </g>
      <g id="freepik--Device--inject-31" transform="translate(92.422 50.401)">
        <path id="Path_3172" data-name="Path 3172" d="M256.345,318.728l-24.794-.107c-.258,0-.465-.281-.462-.622l.027-6.486c0-.335.211-.622.468-.622l24.794.114a.562.562,0,0,1,.462.626l-.023,6.479C256.817,318.453,256.6,318.731,256.345,318.728Z" transform="translate(-219.833 -256.241)" fill="#c53f3f"/>
        <text id="Submit" transform="translate(18.257 59.649)" fill="#e8e8e3" font-size="3" font-family="Montserrat"><tspan x="0" y="0">Submit</tspan></text>
        <rect id="Rectangle_485" data-name="Rectangle 485" width="8.604" height="1.579" transform="translate(8.09 27.03) rotate(0.26)" fill="#c53f3f"/>
        <rect id="Rectangle_487" data-name="Rectangle 487" width="15.735" height="1.475" transform="translate(10.674 32.755)" fill="#c53f3f"/>
        <rect id="Rectangle_489" data-name="Rectangle 489" width="8.604" height="1.579" transform="translate(8.031 41.433) rotate(0.26)" fill="#c53f3f"/>
        <rect id="Rectangle_493" data-name="Rectangle 493" width="15.735" height="1.475" transform="translate(10.338 47.505) rotate(0.26)" fill="#c53f3f"/>
        <path id="Path_3194" data-name="Path 3194" d="M269.122,123.571a1.294,1.294,0,0,0,.773-1.2,1.218,1.218,0,1,0-2.432,0,1.3,1.3,0,0,0,.776,1.214,2.216,2.216,0,0,0-1.79,2.315l4.429.02S270.981,123.849,269.122,123.571Z" transform="translate(-243.334 -108.324)" fill="#c53f3f"/>
        <rect id="Rectangle_495" data-name="Rectangle 495" width="15.785" height="1.887" transform="translate(17.199 18.836) rotate(0.26)" fill="#c53f3f"/>
        <g id="Group_647" data-name="Group 647">
          <rect id="Rectangle_486" data-name="Rectangle 486" width="8.604" height="1.579" transform="translate(8.09 27.03) rotate(0.26)" opacity="0.1"/>
          <path id="Path_3173" data-name="Path 3173" d="M255.126,181.1a.769.769,0,0,0,.2-.047.528.528,0,0,0,.334-.452v-4.442a.649.649,0,0,0-.094-.438.5.5,0,0,0-.4-.2h-5.355l-27.978-.1a.445.445,0,0,0-.368.184.639.639,0,0,0-.087.438v4.014a2.64,2.64,0,0,0,0,.468.452.452,0,0,0,.261.3.522.522,0,0,0,.207.037h1.7l7.429.04,12.577.077,8.48.067,2.3.027H243.556l-12.577-.04-7.429-.03h-1.7a.669.669,0,0,1-.274-.047.629.629,0,0,1-.361-.418.946.946,0,0,1-.02-.268v-4.262a1.874,1.874,0,0,1,0-.268.569.569,0,0,1,.11-.271.615.615,0,0,1,.508-.258l27.978.154,4.834.033h.522a.572.572,0,0,1,.468.244.712.712,0,0,1,.107.492v2.138c0,1-.023,1.773-.03,2.308a.542.542,0,0,1-.351.465.4.4,0,0,1-.211.06Z" transform="translate(-213.212 -144.341)" fill="#e0e0e0"/>
          <rect id="Rectangle_488" data-name="Rectangle 488" width="15.735" height="1.475" transform="translate(10.675 32.755)" fill="#fff" opacity="0.2"/>
          <rect id="Rectangle_490" data-name="Rectangle 490" width="8.604" height="1.579" transform="translate(8.031 41.433) rotate(0.26)" opacity="0.1"/>
          <path id="Path_3174" data-name="Path 3174" d="M254.755,224.237a1.728,1.728,0,0,0,.2-.037.686.686,0,0,0,.421-.381.937.937,0,0,0,.06-.425V219.4a.719.719,0,0,0-.1-.442.649.649,0,0,0-.365-.284,2.05,2.05,0,0,0-.505-.027h-4.814l-27.881-.1a.619.619,0,0,0-.612.539V223.1a1.921,1.921,0,0,0,.02.468.635.635,0,0,0,.244.334.7.7,0,0,0,.415.107h1.432l7.4.037,12.534.077,8.45.067,2.3.027H243.211L230.67,224.2l-7.4-.027h-1.455a.839.839,0,0,1-.512-.137.8.8,0,0,1-.314-.438,2.108,2.108,0,0,1-.027-.515v-4.014a.793.793,0,0,1,.786-.692l27.881.154,4.814.037a2.072,2.072,0,0,1,.535.037.739.739,0,0,1,.411.335.806.806,0,0,1,.107.488v4.007a.934.934,0,0,1-.07.438.709.709,0,0,1-.452.381.628.628,0,0,1-.217-.02Z" transform="translate(-213.058 -173.071)" fill="#e0e0e0"/>
          <rect id="Rectangle_494" data-name="Rectangle 494" width="15.735" height="1.475" transform="translate(10.339 47.505) rotate(0.26)" fill="#fff" opacity="0.2"/>
          <path id="Path_3195" data-name="Path 3195" d="M269.122,123.571a1.294,1.294,0,0,0,.773-1.2,1.218,1.218,0,1,0-2.432,0,1.3,1.3,0,0,0,.776,1.214,2.216,2.216,0,0,0-1.79,2.315l4.429.02S270.981,123.849,269.122,123.571Z" transform="translate(-243.334 -108.324)" opacity="0.1"/>
          <rect id="Rectangle_496" data-name="Rectangle 496" width="15.785" height="1.887" transform="translate(17.199 18.835) rotate(0.26)" fill="#fff" opacity="0.2"/>
        </g>
      </g>
      <g id="freepik--Character--inject-31" transform="translate(67.371 81.073)">
        <path id="Path_3196" data-name="Path 3196" d="M160.861,442.577v-2.86l-5.128-.037-.043,4.325.318.023c1.415.09,7.2.224,8.149-.07C165.213,443.631,160.861,442.577,160.861,442.577Z" transform="translate(-144.574 -351.017)" fill="#c53f3f"/>
        <path id="Path_3197" data-name="Path 3197" d="M164.31,451.5c0,.047-1.92.087-4.285.087s-4.285-.04-4.285-.087,1.92-.087,4.285-.087S164.31,451.45,164.31,451.5Z" transform="translate(-144.608 -358.823)" fill="#263238"/>
        <path id="Path_3198" data-name="Path 3198" d="M171.387,449.022c-.043-.023,0-.174.1-.335s.244-.227.278-.194-.037.161-.137.3S171.43,449.045,171.387,449.022Z" transform="translate(-155.009 -356.877)" fill="#263238"/>
        <path id="Path_3199" data-name="Path 3199" d="M172.354,449.4c-.047,0-.023-.187.077-.365s.234-.284.271-.258-.023.177-.117.335S172.4,449.421,172.354,449.4Z" transform="translate(-155.649 -357.072)" fill="#263238"/>
        <path id="Path_3200" data-name="Path 3200" d="M157.417,449.633c-.02,0-.1-.06-.207-.187a3.317,3.317,0,0,0-.448-.448,1.181,1.181,0,0,0-.555-.244c-.157-.02-.258,0-.268-.02s.087-.09.271-.1a1.034,1.034,0,0,1,.669.227,1.887,1.887,0,0,1,.442.518C157.4,449.523,157.437,449.62,157.417,449.633Z" transform="translate(-144.739 -356.973)" fill="#263238"/>
        <path id="Path_3201" data-name="Path 3201" d="M170.484,448.446c.023.04-.064.141-.211.194s-.278.033-.284,0,.1-.1.224-.151S170.458,448.406,170.484,448.446Z" transform="translate(-154.09 -356.839)" fill="#263238"/>
        <path id="Path_3202" data-name="Path 3202" d="M170.005,447.483c0,.05-.134.09-.308.094s-.311-.037-.308-.084.14-.09.308-.094S170,447.436,170.005,447.483Z" transform="translate(-153.691 -356.154)" fill="#263238"/>
        <path id="Path_3203" data-name="Path 3203" d="M198.611,442.577v-2.86l-5.128-.037-.043,4.282.318.023c1.415.09,7.2.268,8.149-.027C202.963,443.631,198.611,442.577,198.611,442.577Z" transform="translate(-169.697 -351.017)" fill="#c53f3f"/>
        <path id="Path_3204" data-name="Path 3204" d="M202.067,451.517c0,.047-1.917.087-4.285.087s-4.282-.04-4.282-.087,1.917-.087,4.282-.087S202.067,451.47,202.067,451.517Z" transform="translate(-169.737 -358.837)" fill="#263238"/>
        <path id="Path_3205" data-name="Path 3205" d="M209.14,449.022c-.04-.023,0-.174.1-.335s.244-.227.278-.194-.037.161-.137.3S209.183,449.045,209.14,449.022Z" transform="translate(-180.134 -356.877)" fill="#263238"/>
        <path id="Path_3206" data-name="Path 3206" d="M210.107,449.4c-.043,0-.023-.187.08-.365s.234-.284.271-.258-.027.177-.12.335S210.154,449.421,210.107,449.4Z" transform="translate(-180.774 -357.072)" fill="#263238"/>
        <path id="Path_3207" data-name="Path 3207" d="M195.167,449.633c-.02,0-.094-.06-.207-.187a3.315,3.315,0,0,0-.448-.448,1.181,1.181,0,0,0-.555-.244c-.154-.02-.258,0-.268-.02s.087-.09.271-.1a1.034,1.034,0,0,1,.669.227,1.829,1.829,0,0,1,.442.518C195.147,449.523,195.187,449.62,195.167,449.633Z" transform="translate(-169.862 -356.973)" fill="#263238"/>
        <path id="Path_3208" data-name="Path 3208" d="M208.234,448.446c.023.04-.064.141-.211.194s-.278.033-.284,0,.1-.1.224-.151S208.208,448.406,208.234,448.446Z" transform="translate(-179.213 -356.839)" fill="#263238"/>
        <path id="Path_3209" data-name="Path 3209" d="M207.782,447.483c0,.05-.134.09-.308.094s-.308-.037-.3-.084.137-.09.3-.094S207.782,447.436,207.782,447.483Z" transform="translate(-178.834 -356.154)" fill="#263238"/>
        <path id="Path_3210" data-name="Path 3210" d="M170.268,185.469c-.134-.137-.465-.07-.465-.07a1.714,1.714,0,0,0,0-.582c-.06-.187-.482-.151-.482-.151a1.943,1.943,0,0,1,0-.475.171.171,0,0,0-.1-.171,1.546,1.546,0,0,0-.629-.114c-.258-.184.786-1.646,1.174-2.114s.318-.833-.027-.833a9.8,9.8,0,0,0-1.83,1.877c-.375.472-1.368,1.783-1.4.736a2.668,2.668,0,0,0-.719-1.97c-.264-.134-.545.181-.4.472a3.743,3.743,0,0,1,.234,1.03,2.462,2.462,0,0,1-.037.843,10.108,10.108,0,0,1-.452,1.512h-.027s-7.3,7-7.827,7.5c-.472.448-9.958-.532-11.862-.733a12.742,12.742,0,0,0-1.954-.134c-.826.037-.973.154-1.8.164a40.683,40.683,0,0,0-6.2.545,5.141,5.141,0,0,0-4.034,3.5c-1.917,5.988-6.259,20.161-7.025,28.122a33.787,33.787,0,0,0-1.565,3.235c-.539,1.465-.408,1.515-.227,1.549.488.09,1.044-2.539,1.251-1.9s-1.054,3.134-.542,3.208c.669.094,1.2-2.676,1.264-2.9s.395-.151.335.057c-.1.294-1.037,3.415-.381,3.516.361.054.4-.605.4-.605s.669-2.987.973-2.927-.02,1.823-.174,2.412.06.886.375.743a9.89,9.89,0,0,0,.866-2.472c.14-.582.492-2.194.963-1.261a2.707,2.707,0,0,0,1.482,1.489.334.334,0,0,0,.164-.6,3.79,3.79,0,0,1-.646-.836,2.466,2.466,0,0,1-.335-.783,8.489,8.489,0,0,1-.234-1.693l-.054-.335c.749-3.71,2.907-14.6,6.021-21.552l1.278,2.629.555,1.947-3.405,8.406,14.524-.191-2.168-8.343,2.633-8.7h0c2.847.064,10.156.171,11.373-.381,1.532-.669,9.457-10.677,9.457-10.677h0a18.308,18.308,0,0,0,1.482-1.285S170.559,185.77,170.268,185.469Z" transform="translate(-122.46 -178.841)" fill="#ffbe9d"/>
        <path id="Path_3211" data-name="Path 3211" d="M142.393,230.314c.421-1.438,2.586-8.55,2.586-8.55s1.064,5.8.783,6.5a12.378,12.378,0,0,1-.913,1.726c-2.455,3.736-2.134,5.606-2.134,5.606l14.835-.452a38.227,38.227,0,0,0-1.448-7.667c-.254-.769.592-3.288.592-3.288s1.673-1.7,1.612-2.579a14.174,14.174,0,0,0-.291-2.342l9.032.335-.284-6.121-12.972-1.3c-.452,1.274-4.536.649-4.536.649-4.409.147-4.683.957-6.516,2.382s-4.867,13.655-4.867,13.655Z" transform="translate(-132.715 -199.617)" fill="#c53f3f"/>
        <path id="Path_3212" data-name="Path 3212" d="M167.089,261a3.118,3.118,0,0,1-.779.04c-.485,0-1.151-.033-1.883-.107s-1.395-.177-1.867-.271a3.218,3.218,0,0,1-.759-.194,4.182,4.182,0,0,1,.779.074c.475.06,1.134.144,1.863.217s1.392.124,1.87.157A4.127,4.127,0,0,1,167.089,261Z" transform="translate(-148.641 -231.754)" fill="#263238"/>
        <path id="Path_3213" data-name="Path 3213" d="M169.21,258.29a3.43,3.43,0,0,1-.81.278,14.873,14.873,0,0,1-4.091.485,3.377,3.377,0,0,1-.85-.08,5.721,5.721,0,0,1,.85-.043c.525-.017,1.248-.054,2.044-.147s1.505-.227,2.007-.335A5.55,5.55,0,0,1,169.21,258.29Z" transform="translate(-149.745 -230.303)" fill="#263238"/>
        <path id="Path_3214" data-name="Path 3214" d="M193.108,241.47a3.483,3.483,0,0,1-.1.756c-.087.465-.221,1.1-.391,1.8s-.335,1.338-.482,1.773a3.345,3.345,0,0,1-.261.719,3.4,3.4,0,0,1,.141-.749c.127-.522.271-1.124.432-1.783s.314-1.261.442-1.783A3.191,3.191,0,0,1,193.108,241.47Z" transform="translate(-168.652 -219.11)" fill="#263238"/>
        <path id="Path_3215" data-name="Path 3215" d="M142.856,261.384a15.55,15.55,0,0,1-2.285-.532,15.871,15.871,0,0,1-2.241-.7,16.09,16.09,0,0,1,2.285.532A15.7,15.7,0,0,1,142.856,261.384Z" transform="translate(-133.021 -231.541)" fill="#263238"/>
        <path id="Path_3216" data-name="Path 3216" d="M190.353,219.89a1.123,1.123,0,0,1-.381,0,3.964,3.964,0,0,1-1.02-.244,4.191,4.191,0,0,1-2.422-2.378,4.322,4.322,0,0,1-.3-1.883,2.927,2.927,0,0,1,.458-1.492,1.549,1.549,0,0,1,.846-.626,1.024,1.024,0,0,1,.284-.037h.1a1.085,1.085,0,0,0-.365.09,1.522,1.522,0,0,0-.766.626,3.818,3.818,0,0,0-.1,3.245,4.087,4.087,0,0,0,1.034,1.512,4.392,4.392,0,0,0,1.268.816,6.444,6.444,0,0,0,1.358.371Z" transform="translate(-164.893 -200.316)" fill="#263238"/>
        <path id="Path_3217" data-name="Path 3217" d="M221.7,221.735a27.878,27.878,0,0,1-.08-3.084,27.6,27.6,0,0,1,.094-3.081,27.787,27.787,0,0,1,.08,3.081,26.76,26.76,0,0,1-.094,3.084Z" transform="translate(-188.44 -201.874)" fill="#263238"/>
        <path id="Path_3218" data-name="Path 3218" d="M175.278,189.988c.037-.746.114-1.589.114-1.589a2.235,2.235,0,0,0,1.957-2.111c.11-1.907,0-6.305,0-6.305L174,178.27l-3.713,2.92.572,9.533,3.405.217A.983.983,0,0,0,175.278,189.988Z" transform="translate(-154.29 -177.051)" fill="#ffbe9d"/>
        <path id="Path_3219" data-name="Path 3219" d="M184.674,195.566a.155.155,0,0,1-.03.08.248.248,0,0,1-.211.094c-.214,0-.421-.248-.5-.535a.873.873,0,0,1,0-.425.368.368,0,0,1,.2-.288.184.184,0,0,1,.14,0,.171.171,0,0,1,.077.077.094.094,0,0,1,0,.09.1.1,0,0,0-.033-.067.12.12,0,0,0-.157-.033.284.284,0,0,0-.137.237.856.856,0,0,0,0,.378c.067.261.248.472.408.492a.231.231,0,0,0,.177-.05C184.654,195.589,184.667,195.563,184.674,195.566Z" transform="translate(-163.356 -187.837)" fill="#eb996e"/>
        <path id="Path_3220" data-name="Path 3220" d="M161.095,176.526a2.7,2.7,0,0,0-2.04-1.552,6.429,6.429,0,0,0-3.957-.064c-1.264.465-2.783,1.281-2.783,2.676-.746-.06-1.174.592-1.469,1.4a5.253,5.253,0,0,0-.335,1.539h0c-.094,1.826-.605,4.349-1.79,5.687-.669.746-1.6,1.261-1.977,2.191-.335.806-.161,1.763-.472,2.579a9.072,9.072,0,0,1-1.338,1.857,4.977,4.977,0,0,0-.318,4.814,6.1,6.1,0,0,0,3.643,3.144,8.52,8.52,0,0,0,4.8.047,8.028,8.028,0,0,0,3.218-1.6,5.372,5.372,0,0,0,1.867-3.091,11.054,11.054,0,0,0-.428-4.111c-.89-4.292-.636-4.516.488-8.5.027-.07.04-.144.06-.214s.03-.1.044-.157h0a2.526,2.526,0,0,0,.05-.478.92.92,0,0,1-.967-.207,1,1,0,0,1-.227-1,1.458,1.458,0,0,1,.863-.813c.371-.154.769-.234,1.134-.4a3.788,3.788,0,0,0,1.673-1.93,2.649,2.649,0,0,0,.261-1.813Z" transform="translate(-136.89 -174.625)" fill="#263238"/>
        <path id="Path_3221" data-name="Path 3221" d="M185.457,198a1.637,1.637,0,0,1,.174.335c.1.211.234.508.381.853l.027.064h-.07l-.335.03c-.231,0-.425.043-.652.04a.12.12,0,0,1-.087-.077.151.151,0,0,1,0-.094,1.347,1.347,0,0,1,.03-.134l.06-.237a2.261,2.261,0,0,1,.141-.462,2.26,2.26,0,0,1-.07.478l-.047.238c-.017.08-.047.2,0,.194.167,0,.4-.037.626-.05l.335-.03-.043.074c-.144-.335-.264-.649-.335-.866a1.3,1.3,0,0,1-.134-.355Z" transform="translate(-164.005 -190.181)" fill="#c53f3f"/>
        <path id="Path_3222" data-name="Path 3222" d="M150.925,281.272l14.835-.452,6.456,25.2-1.187,28.908h-7.844l.96-28.293-5.737-17.545.883,46.958-7.928.117-.833-44.138a48.729,48.729,0,0,1-.288-5.212Z" transform="translate(-140.927 -245.297)" fill="#263238"/>
        <path id="Path_3223" data-name="Path 3223" d="M171,304.664a2.969,2.969,0,0,1-.726-.043c-.448-.053-1.06-.147-1.733-.281s-1.274-.288-1.709-.411a2.762,2.762,0,0,1-.669-.241c0-.05,1.09.211,2.429.482S171,304.614,171,304.664Z" transform="translate(-151.542 -260.511)" fill="#455a64"/>
        <path id="Path_3224" data-name="Path 3224" d="M196.418,437.667c0,.047-1.776.087-3.967.087s-3.971-.04-3.971-.087,1.776-.087,3.971-.087S196.418,437.617,196.418,437.667Z" transform="translate(-166.396 -349.62)" fill="#455a64"/>
        <path id="Path_3225" data-name="Path 3225" d="M161.824,442.107c0,.05-1.726.087-3.854.087s-3.85-.037-3.85-.087,1.726-.087,3.85-.087S161.824,442.06,161.824,442.107Z" transform="translate(-143.529 -352.574)" fill="#455a64"/>
        <path id="Path_3226" data-name="Path 3226" d="M172.569,350.734c-.047,0-.254-10.259-.465-22.914s-.335-22.92-.291-22.92.258,10.256.465,22.917S172.619,350.734,172.569,350.734Z" transform="translate(-155.298 -261.322)" fill="#455a64"/>
        <path id="Path_3227" data-name="Path 3227" d="M198.419,334.243a.857.857,0,0,1,0-.137v-.4c0-.361.027-.88.047-1.539.047-1.338.114-3.282.2-5.663.181-4.79.435-11.393.712-18.682v-.174c-1.756-7.025-3.345-13.4-4.5-18.013l-1.338-5.456c-.154-.639-.271-1.137-.355-1.485-.04-.164-.067-.291-.09-.388a.579.579,0,0,1-.023-.134.742.742,0,0,1,.04.13c.027.094.06.221.107.381.09.335.221.843.388,1.479.335,1.291.806,3.151,1.395,5.442,1.164,4.61,2.77,10.969,4.549,18v.221c-.3,7.289-.569,13.889-.766,18.679-.1,2.385-.191,4.315-.251,5.66-.033.669-.06,1.177-.077,1.539,0,.171-.02.3-.023.4A.639.639,0,0,1,198.419,334.243Z" transform="translate(-169.45 -246.195)" fill="#455a64"/>
        <path id="Path_3228" data-name="Path 3228" d="M194.323,356.5a8.961,8.961,0,0,1-1.733.385c-.723.124-1.338.211-1.616.224v-.067c.09.027.137.044.137.057s-.057,0-.151,0h-.2l.2-.06c.261-.077.876-.2,1.6-.335A9.028,9.028,0,0,1,194.323,356.5Z" transform="translate(-167.913 -295.661)" fill="#455a64"/>
        <path id="Path_3229" data-name="Path 3229" d="M194.8,358.826a8.633,8.633,0,0,1-1.562-.07,8.826,8.826,0,0,1-1.555-.171A9.9,9.9,0,0,1,194.8,358.826Z" transform="translate(-168.525 -297.027)" fill="#455a64"/>
        <path id="Path_3230" data-name="Path 3230" d="M152.16,281.8a2.034,2.034,0,0,0,1.465.779,6.6,6.6,0,0,0,1.8-.033,93.331,93.331,0,0,0,11.638-1.729c-4.854.271-9.982.181-14.835.452l-.05.415" transform="translate(-142.225 -245.297)" opacity="0.2"/>
        <g id="Group_646" data-name="Group 646" transform="translate(14.936 43.347)" opacity="0.2">
          <path id="Path_3231" data-name="Path 3231" d="M167.11,304.21l2.736,10.617-.191-10.169Z" transform="translate(-167.11 -304.21)"/>
        </g>
      </g>
    </g>
    <text id="Your_profile_details_are_not_completed_please_complete_it." data-name="Your profile details are not 
completed please complete it." transform="translate(105 650)" fill="#66676c" font-size="12" font-family="Roboto-Regular, Roboto" letter-spacing="0.025em"><tspan x="-75" y="0">Your profile details are not </tspan><tspan x="-84" y="16">completed please complete it.</tspan></text>
    <g id="Rectangle_497" data-name="Rectangle 497" transform="translate(40 623)" fill="#ededed" stroke="#e5e3e3" stroke-width="0.5">
      <rect width="134" height="6" rx="3" stroke="none"/>
      <rect x="-0.25" y="-0.25" width="134.5" height="6.5" rx="3.25" fill="none"/>
    </g>
    <path id="Rectangle_498" data-name="Rectangle 498" d="M3,0H89a0,0,0,0,1,0,0V6a0,0,0,0,1,0,0H3A3,3,0,0,1,0,3V3A3,3,0,0,1,3,0Z" transform="translate(40 623)" fill="#23d6a0"/>
    <g id="Group_651" data-name="Group 651" transform="translate(-924.871 458)">
      <path id="Path_3232" data-name="Path 3232" d="M15.5,0h128a15.5,15.5,0,0,1,0,31H15.5a15.5,15.5,0,0,1,0-31Z" transform="translate(951.871 227)" fill="#e50c35"/>
      <text id="Complete_Profile" data-name="Complete Profile" transform="translate(976.871 248)" fill="#fff" font-size="14" font-family="Roboto-Regular, Roboto" letter-spacing="0.025em"><tspan x="0" y="0">Complete Profile</tspan></text>
    </g>
  </g>
</svg>
