<svg xmlns="http://www.w3.org/2000/svg" width="156" height="52" viewBox="0 0 156 52">
  <g id="Group_555" data-name="Group 555" transform="translate(-1124 -800)">
    <rect id="Rectangle_227" data-name="Rectangle 227" width="48" height="48" rx="10" transform="translate(1124 803)" fill="#02bc77" opacity="0.17"/>
    <text id="New_Employee" data-name="New Employee" transform="translate(1184 815)" fill="#707070" font-size="14" font-family="Roboto-Medium, Roboto" font-weight="500" letter-spacing="0.02em"><tspan x="0" y="0">New Employee</tspan></text>
    <text id="_5" data-name="5" transform="translate(1184 845)" font-size="24" font-family="Roboto-Medium, Roboto" font-weight="500" letter-spacing="0.02em"><tspan x="0" y="0">5</tspan></text>
    <g id="Group_636" data-name="Group 636" transform="translate(-2 -2)">
      <path id="Path_3137" data-name="Path 3137" d="M183.927,73.973h11.549A3.427,3.427,0,0,0,198.9,70.55V68.721a8.136,8.136,0,0,0-8.126-8.126H188.63a8.136,8.136,0,0,0-8.126,8.126V70.55a3.427,3.427,0,0,0,3.423,3.423Zm-1.751-5.252a6.461,6.461,0,0,1,6.454-6.454h2.143a6.461,6.461,0,0,1,6.454,6.454V70.55a1.753,1.753,0,0,1-1.751,1.751H183.927a1.753,1.753,0,0,1-1.751-1.751Zm7.525-8.962a5.441,5.441,0,1,0-3.841-1.594A5.435,5.435,0,0,0,189.7,59.759Zm0-9.2a3.767,3.767,0,1,1-2.659,1.1A3.763,3.763,0,0,1,189.7,50.561Z" transform="translate(960.496 767.111)" fill="#1dbc77"/>
      <path id="Path_3138" data-name="Path 3138" d="M182.336,62.313h6.181a1.834,1.834,0,0,0,1.832-1.832V59.5A4.354,4.354,0,0,0,186,55.153h-1.147A4.354,4.354,0,0,0,180.5,59.5v.979a1.834,1.834,0,0,0,1.832,1.832ZM181.4,59.5a3.458,3.458,0,0,1,3.454-3.454H186a3.458,3.458,0,0,1,3.454,3.454v.979a.938.938,0,0,1-.937.937h-6.181a.938.938,0,0,1-.937-.937Zm4.027-4.8a2.912,2.912,0,1,0-2.056-.853A2.908,2.908,0,0,0,185.426,54.706Zm0-4.922a2.016,2.016,0,1,1-1.423.59A2.014,2.014,0,0,1,185.426,49.784Z" transform="translate(976.496 767.111)" fill="#1dbc77"/>
      <path id="Path_3139" data-name="Path 3139" d="M182.336,62.313h6.181a1.834,1.834,0,0,0,1.832-1.832V59.5A4.354,4.354,0,0,0,186,55.153h-1.147A4.354,4.354,0,0,0,180.5,59.5v.979a1.834,1.834,0,0,0,1.832,1.832ZM181.4,59.5a3.458,3.458,0,0,1,3.454-3.454H186a3.458,3.458,0,0,1,3.454,3.454v.979a.938.938,0,0,1-.937.937h-6.181a.938.938,0,0,1-.937-.937Zm4.027-4.8a2.912,2.912,0,1,0-2.056-.853A2.908,2.908,0,0,0,185.426,54.706Zm0-4.922a2.016,2.016,0,1,1-1.423.59A2.014,2.014,0,0,1,185.426,49.784Z" transform="translate(953.496 767.111)" fill="#1dbc77"/>
    </g>
  </g>
</svg>
