<svg xmlns="http://www.w3.org/2000/svg" xmlns:xlink="http://www.w3.org/1999/xlink" width="11.208" height="12.07" viewBox="0 0 11.208 12.07">
  <defs>
    <linearGradient id="linear-gradient" x1="2.249" y1="4.263" x2="-2.369" gradientUnits="objectBoundingBox">
      <stop offset="0" stop-color="#e50c35"/>
      <stop offset="1" stop-color="#000d58"/>
    </linearGradient>
  </defs>
  <g id="Layer_2" data-name="Layer 2" transform="translate(-3 -2)">
    <path id="Path_2832" data-name="Path 2832" d="M14.293,4.586a1.293,1.293,0,1,1,1.293-1.293A1.293,1.293,0,0,1,14.293,4.586Zm0-1.724a.431.431,0,1,0,.431.431A.431.431,0,0,0,14.293,2.862Z" transform="translate(-5.689)" fill="url(#linear-gradient)"/>
    <path id="Path_2833" data-name="Path 2833" d="M13.228,27.155a2.155,2.155,0,0,1-2.086-1.617A.431.431,0,0,1,11.573,25h3.337a.431.431,0,0,1,.431.539A2.155,2.155,0,0,1,13.228,27.155Zm-.966-1.293a1.293,1.293,0,0,0,1.931,0Z" transform="translate(-4.624 -13.085)" fill="url(#linear-gradient)"/>
    <path id="Path_2834" data-name="Path 2834" d="M13.777,15.053H3.431A.431.431,0,0,1,3,14.622v-.776a1.293,1.293,0,0,1,1.194-1.293v-3.1A3.449,3.449,0,0,1,7.643,6H9.565a3.449,3.449,0,0,1,3.449,3.449v3.108a1.293,1.293,0,0,1,1.194,1.293v.772A.431.431,0,0,1,13.777,15.053ZM3.862,14.19h9.484v-.345a.431.431,0,0,0-.431-.431h-.332a.431.431,0,0,1-.431-.431V9.449A2.586,2.586,0,0,0,9.565,6.862H7.643A2.586,2.586,0,0,0,5.056,9.449v3.535a.431.431,0,0,1-.431.431H4.293a.431.431,0,0,0-.431.431Z" transform="translate(0 -2.276)" fill="url(#linear-gradient)"/>
  </g>
</svg>
