<svg xmlns="http://www.w3.org/2000/svg" width="13.702" height="13.672" viewBox="0 0 13.702 13.672">
  <path id="noun-calender-4769072" d="M152.939,76.994v4.567a2.284,2.284,0,0,1-2.284,2.284h-7.612a2.284,2.284,0,0,1-2.284-2.284V76.994h12.18m.761-.761H140v5.329a3.045,3.045,0,0,0,3.045,3.045h7.612a3.045,3.045,0,0,0,3.045-3.045V76.233Zm-3.045-3.045a2.284,2.284,0,0,1,2.284,2.284v.761h-12.18v-.761a2.284,2.284,0,0,1,2.284-2.284h7.612m0-.761h-7.612A3.045,3.045,0,0,0,140,75.472v1.522h13.7V75.472a3.045,3.045,0,0,0-3.045-3.045Zm-6.471,1.812V71.316a.381.381,0,1,0-.761,0v2.923a.381.381,0,1,0,.761,0Zm3.045,0V71.316a.381.381,0,1,0-.761,0v2.923a.381.381,0,1,0,.761,0Zm3.045,0V71.316a.381.381,0,1,0-.761,0v2.923a.381.381,0,1,0,.761,0Z" transform="translate(-139.998 -70.935)" fill="#010d58"/>
</svg>
