<svg xmlns="http://www.w3.org/2000/svg" width="26.126" height="20.901" viewBox="0 0 26.126 20.901">
  <path id="noun-briefcase-968476" d="M208.709,160a.823.823,0,0,0-.871.871v2.613h-5.225A2.625,2.625,0,0,0,200,166.1v12.192a2.625,2.625,0,0,0,2.613,2.613h20.9a2.625,2.625,0,0,0,2.613-2.613V166.1a2.739,2.739,0,0,0-2.613-2.613h-5.225v-2.613a.823.823,0,0,0-.871-.871Zm.871,1.742h6.967v1.742H209.58Zm-6.967,3.483h20.9a1.02,1.02,0,0,1,.871.871v3.483a.785.785,0,0,1-.871.871h-6.967a1.687,1.687,0,0,0-1.742-1.742h-3.483a1.687,1.687,0,0,0-1.742,1.742h-6.967a.785.785,0,0,1-.871-.871V166.1a.865.865,0,0,1,.871-.871Zm8.709,5.225H214.8v1.742h-3.483Zm-9.58,1.6a2.861,2.861,0,0,0,.871.143h6.967a1.687,1.687,0,0,0,1.742,1.742H214.8a1.687,1.687,0,0,0,1.742-1.742h6.967a2.861,2.861,0,0,0,.871-.143v6.239a.865.865,0,0,1-.871.871h-20.9a.865.865,0,0,1-.871-.871Z" transform="translate(-200 -160)" fill="#fc2366"/>
</svg>
