<svg xmlns="http://www.w3.org/2000/svg" width="14.408" height="14.408" viewBox="0 0 14.408 14.408">
  <g id="noun-plus-982673" transform="translate(-175 -105)">
    <path id="Path_3149" data-name="Path 3149" d="M333.22,105a.774.774,0,0,1,.72.72v12.967a.72.72,0,0,1-.72.72.774.774,0,0,1-.72-.72V105.72A.72.72,0,0,1,333.22,105Z" transform="translate(-151.016)" fill-rule="evenodd"/>
    <path id="Path_3150" data-name="Path 3150" d="M175.72,262.5h12.967a.774.774,0,0,1,.72.72.72.72,0,0,1-.72.72H175.72a.774.774,0,0,1-.72-.72A.72.72,0,0,1,175.72,262.5Z" transform="translate(0 -151.016)" fill-rule="evenodd"/>
  </g>
</svg>
