<svg xmlns="http://www.w3.org/2000/svg" width="16.595" height="12.614" viewBox="0 0 16.595 12.614">
  <g id="noun-dashboard-2924851" transform="translate(-133.117 -71.397)">
    <path id="Path_2847" data-name="Path 2847" d="M148.419,84.011H134.41a.335.335,0,0,1-.3-.177,8.544,8.544,0,0,1-1-4.009,8.3,8.3,0,1,1,16.595,0,8.544,8.544,0,0,1-1,4.009.335.335,0,0,1-.3.177Zm-13.806-.67h13.6a7.88,7.88,0,0,0,.827-3.516,7.629,7.629,0,1,0-15.256,0,7.88,7.88,0,0,0,.827,3.516Z" fill="#fff"/>
    <path id="Path_2848" data-name="Path 2848" d="M341.585,76.576a.335.335,0,0,1-.335-.335V74.663a.335.335,0,1,1,.669,0v1.579A.335.335,0,0,1,341.585,76.576Z" transform="translate(-200.17 -2.819)" fill="#fff"/>
    <path id="Path_2849" data-name="Path 2849" d="M204.87,144.18l1.1,1.116" transform="translate(-69.008 -69.998)" fill="#fff"/>
    <path id="Path_2850" data-name="Path 2850" d="M197.546,137.221a.334.334,0,0,1-.239-.1l-1.1-1.116a.335.335,0,1,1,.477-.47l1.1,1.116a.335.335,0,0,1-.239.57Z" transform="translate(-60.586 -61.589)" fill="#fff"/>
    <path id="Path_2851" data-name="Path 2851" d="M137.894,283.609h-1.553a.335.335,0,0,1,0-.669h1.553a.335.335,0,1,1,0,.669Z" transform="translate(-2.778 -203.45)" fill="#fff"/>
    <path id="Path_2852" data-name="Path 2852" d="M507.794,283.609h-1.553a.335.335,0,1,1,0-.669h1.553a.335.335,0,1,1,0,.669Z" transform="translate(-358.527 -203.45)" fill="#fff"/>
    <path id="Path_2853" data-name="Path 2853" d="M467.521,144.18l-1.1,1.116" transform="translate(-320.554 -69.998)" fill="#fff"/>
    <path id="Path_2854" data-name="Path 2854" d="M458.016,137.221a.335.335,0,0,1-.239-.57l1.1-1.116a.335.335,0,1,1,.477.47l-1.1,1.116A.333.333,0,0,1,458.016,137.221Z" transform="translate(-312.147 -61.589)" fill="#fff"/>
    <path id="Path_2855" data-name="Path 2855" d="M359.194,194.346a.335.335,0,0,1-.223-.584l2.907-2.6a.335.335,0,0,1,.446.5l-2.907,2.6a.334.334,0,0,1-.223.085Z" transform="translate(-217.105 -115.1)" fill="#fff"/>
    <path id="Path_2856" data-name="Path 2856" d="M314.1,255.328a1.446,1.446,0,1,1,1.428-1.446A1.439,1.439,0,0,1,314.1,255.328Zm0-2.223a.777.777,0,1,0,.759.777A.769.769,0,0,0,314.1,253.106Z" transform="translate(-172.685 -174.113)" fill="#fff"/>
  </g>
</svg>
