<svg xmlns="http://www.w3.org/2000/svg" width="26.146" height="18.883" viewBox="0 0 26.146 18.883">
  <g id="noun-ticket-5261958" transform="translate(-139.998 -140)">
    <path id="Path_3131" data-name="Path 3131" d="M234.058,221.67a.726.726,0,1,0,0,1.452h4.358a.726.726,0,1,0,0-1.452Z" transform="translate(-87.524 -76.586)" fill="#e2b400"/>
    <path id="Path_3132" data-name="Path 3132" d="M233.33,280.728a.726.726,0,0,1,.726-.726h4.358a.726.726,0,1,1,0,1.452h-4.358A.726.726,0,0,1,233.33,280.728Z" transform="translate(-87.522 -131.287)" fill="#e2b400"/>
    <path id="Path_3133" data-name="Path 3133" d="M234.058,338.33a.726.726,0,0,0,0,1.453h5.81a.726.726,0,1,0,0-1.453Z" transform="translate(-87.524 -185.984)" fill="#e2b400"/>
    <path id="Path_3134" data-name="Path 3134" d="M141.45,140A1.452,1.452,0,0,0,140,141.452v4.43A3.632,3.632,0,0,1,140,153v4.43a1.452,1.452,0,0,0,1.452,1.452h23.241a1.452,1.452,0,0,0,1.452-1.452V153a3.632,3.632,0,0,1,0-7.117v-4.43A1.452,1.452,0,0,0,164.691,140Zm23.241,2.179a.727.727,0,0,0-.726-.726h-6.536V157.43h6.536a.726.726,0,0,0,.726-.726v-2.668a5.085,5.085,0,0,1,0-9.188ZM141.45,156.7a.726.726,0,0,0,.726.726h13.8V141.452h-13.8a.727.727,0,0,0-.726.726v2.669a5.085,5.085,0,0,1,0,9.188Z" transform="translate(0 0)" fill="#e2b400" fill-rule="evenodd"/>
  </g>
</svg>
