<svg xmlns="http://www.w3.org/2000/svg" width="22.285" height="30.387" viewBox="0 0 22.285 30.387">
  <path id="Path_3136" data-name="Path 3136" d="M184.651,79.276h13.991a4.151,4.151,0,0,0,4.147-4.147V72.914a9.856,9.856,0,0,0-9.845-9.845h-2.6a9.856,9.856,0,0,0-9.845,9.845V75.13a4.151,4.151,0,0,0,4.147,4.147Zm-2.121-6.362a7.827,7.827,0,0,1,7.819-7.819h2.6a7.827,7.827,0,0,1,7.819,7.819V75.13a2.124,2.124,0,0,1-2.121,2.121H184.651a2.124,2.124,0,0,1-2.121-2.121Zm9.116-10.857a6.592,6.592,0,1,0-4.653-1.931A6.584,6.584,0,0,0,191.647,62.057Zm0-11.142a4.564,4.564,0,1,1-3.222,1.337A4.559,4.559,0,0,1,191.647,50.914Z" transform="translate(-180.504 -48.889)" fill="#4791fc"/>
</svg>
