<svg xmlns="http://www.w3.org/2000/svg" xmlns:xlink="http://www.w3.org/1999/xlink" width="18.811" height="10.957" viewBox="0 0 18.811 10.957">
  <defs>
    <linearGradient id="linear-gradient" x1="0.156" x2="0.946" y2="1.185" gradientUnits="objectBoundingBox">
      <stop offset="0" stop-color="#000d58"/>
      <stop offset="1" stop-color="#e50c35"/>
    </linearGradient>
  </defs>
  <path id="Path_2857" data-name="Path 2857" d="M10.617,99.21a2.261,2.261,0,1,1,2.258,2.142A2.2,2.2,0,0,1,10.617,99.21Zm2.258-2.727a2.729,2.729,0,1,0,2.842,2.727A2.786,2.786,0,0,0,12.875,96.483ZM8.646,107.44a4.376,4.376,0,0,1,4.287-4.461,4.376,4.376,0,0,1,4.287,4.461H17.8a4.961,4.961,0,0,0-4.871-5.045,4.96,4.96,0,0,0-4.871,5.045Zm10.341-9.327a1.344,1.344,0,1,0,1.419,1.342A1.382,1.382,0,0,0,18.987,98.113Zm-2,1.342a2.005,2.005,0,1,1,2,1.926A1.966,1.966,0,0,1,16.983,99.455Zm.147,3.4a2.711,2.711,0,0,1,1.9-.777,2.841,2.841,0,0,1,2.781,2.9h.585a3.425,3.425,0,0,0-3.365-3.482,3.3,3.3,0,0,0-2.3.942ZM6.984,98.113a1.344,1.344,0,1,1,0,2.683,1.344,1.344,0,1,1,0-2.683Zm2,1.342a1.966,1.966,0,0,0-2-1.926,1.928,1.928,0,1,0,0,3.852A1.966,1.966,0,0,0,8.988,99.455Zm-.147,3.4a2.711,2.711,0,0,0-1.9-.777,2.841,2.841,0,0,0-2.781,2.9H3.58A3.425,3.425,0,0,1,6.945,101.5a3.3,3.3,0,0,1,2.3.942Z" transform="translate(-3.58 -96.483)" fill-rule="evenodd" fill="url(#linear-gradient)"/>
</svg>
